<svg width="24" height="24" viewBox="0 0 24 24" fill="none" xmlns="http://www.w3.org/2000/svg">
<path d="M16.705 11.108C16.543 8.121 14.911 6.411 12.171 6.394C10.519 6.384 9.138 7.084 8.292 8.367L9.8 9.4C10.434 8.439 11.435 8.24 12.16 8.247C13.063 8.253 13.743 8.515 14.184 9.027C14.504 9.399 14.719 9.914 14.826 10.563C14.026 10.427 13.16 10.385 12.236 10.438C9.63 10.588 7.956 12.108 8.068 14.219C8.125 15.29 8.658 16.212 9.57 16.814C10.34 17.323 11.334 17.571 12.365 17.515C13.728 17.44 14.797 16.92 15.543 15.97C16.109 15.248 16.467 14.312 16.625 13.134C17.275 13.526 17.755 14.041 18.022 14.661C18.474 15.715 18.5 17.447 17.087 18.859C15.849 20.095 14.361 20.631 12.112 20.647C9.617 20.629 7.73 19.828 6.504 18.269C5.354 16.809 4.761 14.699 4.739 12C4.761 9.3 5.355 7.191 6.504 5.73C7.73 4.171 9.617 3.371 12.112 3.353C14.625 3.372 16.544 4.175 17.818 5.743C18.443 6.511 18.913 7.477 19.224 8.603L20.99 8.133C20.613 6.746 20.021 5.551 19.216 4.56C17.583 2.55 15.183 1.521 12.106 1.5C9.035 1.521 6.673 2.555 5.087 4.571C3.676 6.366 2.947 8.877 2.923 12.007C2.947 15.137 3.676 17.634 5.087 19.429C6.674 21.445 9.047 22.479 12.117 22.5C14.848 22.481 16.772 21.766 18.357 20.183C20.432 18.11 20.369 15.513 19.686 13.919C19.161 12.694 18.116 11.713 16.706 11.109L16.705 11.108ZM12.267 15.665C11.125 15.729 9.939 15.217 9.88 14.119C9.837 13.305 10.46 12.397 12.337 12.289C13.1853 12.232 14.0374 12.2906 14.87 12.463C14.654 15.165 13.385 15.603 12.267 15.665Z" fill="white"/>
</svg>
